# xmcd
#
# Track frame offsets:
#        187
#        34479
#        66082
#        94552
#        125839
#        161642
#        195874
#        220467
#        249769
#
# Disc length: 3715 seconds
#
# Revision: 2
# Processed by: cddbd v1.5.1PL2 Copyright (c) Steve Scherf et al.
# Submitted via: ExactAudioCopy v0.95a5
#
DISCID=7a0e8109
DTITLE=Jimmy Smith - Damn!
DYEAR=1900
DGENRE=
TTITLE0=Papa's Got A Brand New Bag
TTITLE1=Sister Sadie
TTITLE2=Woody n' You
TTITLE3=The One Before This
TTITLE4=Watermelon Man
TTITLE5=This Here
TTITLE6=Scrapple From The Apple
TTITLE7=Hi-Fly
TTITLE8=A La Mode
EXTD=
EXTT0=Jimmy Smith
EXTT1=Jimmy Smith
EXTT2=Jimmy Smith
EXTT3=Jimmy Smith
EXTT4=Jimmy Smith
EXTT5=Jimmy Smith
EXTT6=Jimmy Smith
EXTT7=Jimmy Smith
EXTT8=Jimmy Smith
PLAYORDER=
